<?xml version="1.0" encoding="UTF-8"?>
<svg width="556px" height="394px" viewBox="0 0 556 394" version="1.1" xmlns="http://www.w3.org/2000/svg" xmlns:xlink="http://www.w3.org/1999/xlink">
    <!-- Generator: Sketch 51.2 (57519) - http://www.bohemiancoding.com/sketch -->
    <title>Group 86</title>
    <desc>Created with Sketch.</desc>
    <defs>
        <polygon id="path-1" points="0.0003 0.0995 545.338 0.0995 545.338 384.9995 0.0003 384.9995"></polygon>
    </defs>
    <g id="Page-1" stroke="none" stroke-width="1" fill="none" fill-rule="evenodd">
        <g id="Group-86">
            <path d="M536.4913,243.7545 L536.3993,243.5815 L533.3773,237.9715 C534.1823,237.2485 534.9643,236.4865 535.7183,235.6885 C542.1723,228.8405 545.8743,219.7285 545.8743,210.6885 C545.8743,187.6715 538.2843,166.6785 524.5033,151.5745 C522.6403,149.5345 520.6773,147.6285 518.6353,145.8285 C524.8643,142.7045 528.5373,136.9415 529.0123,130.1565 C529.3613,125.2085 531.0103,120.7245 530.3963,118.7645 C531.9253,115.6725 531.4473,106.3985 531.4473,106.3985 C531.4473,106.3985 527.4373,98.4105 514.8123,97.7015 C514.6363,97.6925 514.9543,98.0835 514.7713,98.0765 C511.4693,93.1295 494.7573,87.8795 484.1863,93.9745 C482.4073,95.0005 481.2433,95.8065 479.9053,97.5295 C479.8613,97.5465 470.5363,93.0375 457.9003,96.0145 C415.8183,37.9155 336.3453,0.1595 245.2003,0.0745 L245.2003,0.0005 C228.2673,0.0005 211.7403,1.3615 195.7783,3.9465 C84.0653,21.8205 0.0003,99.4385 0.0003,192.4845 C0.0003,233.6325 16.4923,271.7315 44.4923,303.0125 L44.4183,303.0355 C44.4183,303.0355 58.3143,318.3725 62.5223,323.6175 C71.6473,334.9925 69.1703,347.0675 57.1423,356.0195 C40.2773,368.5715 25.8803,368.9395 25.8803,368.9395 C25.8803,368.9395 88.3673,391.5165 132.5783,370.9115 C136.0423,369.2975 139.1253,368.0515 141.9973,367.0875 C173.2933,378.4915 208.1403,384.9005 244.9093,384.9005 C327.0053,384.9005 399.6593,353.1605 444.0943,304.4525 C451.5033,306.0825 459.2693,306.9075 467.3303,306.9075 C492.2073,306.9075 511.3353,299.0175 523.0003,292.3975 C532.0393,287.2755 538.2313,279.3215 540.4223,270.0115 C541.7963,264.1705 542.2463,254.9025 536.5803,243.9275 L536.4913,243.7545 Z" id="Fill-1" fill="#F576FF"></path>
            <g id="Group-5" transform="translate(10.000000, 8.901000)">
                <mask id="mask-2" fill="white">
                    <use xlink:href="#path-1"></use>
                </mask>
                <g id="Clip-4"></g>
                <path d="M536.4913,243.8535 L536.3993,243.6805 L533.3773,238.0705 C546.1463,225.2995 556.0213,177.8005 522.8173,147.1545 C520.7873,145.2805 520.6773,147.7275 518.6353,145.9275 C525.6463,141.5505 531.2093,128.8945 525.0843,117.2075 C528.0213,109.3155 525.0533,99.2385 519.0533,95.0195 C516.4723,93.2055 514.3873,96.8155 510.0933,96.8455 C506.2343,91.0645 488.7513,86.2035 479.4643,98.1705 C479.4203,98.1875 479.3823,98.2115 479.3383,98.2285 C476.8063,97.2745 470.5393,94.5835 457.9023,97.5605 C415.8203,39.4605 336.3453,0.2585 245.2003,0.1735 L245.2003,0.0995 C228.2673,0.0995 211.7403,1.4605 195.7783,4.0455 C84.0653,21.9195 0.0003,99.5375 0.0003,192.5835 C0.0003,233.7315 52.5223,245.7695 80.5223,277.0495 L83.5223,290.0495 L105.5223,289.0495 C105.6643,289.1665 78.3793,297.4315 78.5223,297.5495 C84.1923,303.8525 79.9513,315.3385 86.5223,321.0495 C86.6013,321.1535 86.4433,339.9475 86.5223,340.0495 C97.5153,354.3865 15.8803,360.0385 15.8803,360.0385 C15.8803,360.0385 32.3553,381.8825 75.0223,384.7365 C92.8793,385.9285 112.3103,380.4575 132.5783,371.0105 C136.0423,369.3965 139.1253,368.1505 141.9973,367.1865 C173.2933,378.5905 208.1403,384.9995 244.9093,384.9995 C327.0053,384.9995 399.6593,353.2595 444.0943,304.5515 C451.5033,306.1815 459.2693,307.0065 467.3303,307.0065 C492.2073,307.0065 511.3353,299.1165 523.0003,292.4965 C532.0393,287.3745 538.2313,279.4205 540.4223,270.1105 C541.7963,264.2695 542.2463,255.0015 536.5803,244.0265 L536.4913,243.8535 Z" id="Fill-3" fill="#05FCFF" mask="url(#mask-2)"></path>
            </g>
            <path d="M543.4913,246.7545 L543.3993,246.5815 L540.3773,240.9715 C547.0213,231.1175 560.8543,197.9515 531.5033,154.5745 C529.9553,152.2875 527.6773,150.6285 525.6353,148.8285 C531.8643,145.7045 535.5373,139.9415 536.0123,133.1565 C536.3613,128.2085 533.6743,124.4375 533.0603,122.4775 C536.9693,114.5745 532.9733,99.6395 517.0933,99.7465 C513.2343,93.9655 495.7513,89.1045 486.4643,101.0715 C486.4203,101.0885 486.3823,101.1125 486.3383,101.1295 C471.9593,95.3955 464.2903,99.6205 463.9823,99.2015 C421.6683,41.7965 342.6843,3.1595 252.2003,3.0745 L252.2003,3.0005 C235.2673,3.0005 218.7403,4.3615 202.7783,6.9465 C91.0653,24.8205 7.0003,102.4385 7.0003,195.4845 C7.0003,220.1445 13.3853,243.4835 23.6963,265.3635 C37.6063,294.8845 67.5473,318.7475 70.4203,324.7565 C77.1863,338.9045 74.5413,365.0955 25.8803,368.9395 C55.3213,391.1715 95.3673,394.5165 139.5783,373.9115 C143.0423,372.2975 146.1253,371.0515 148.9973,370.0875 C180.2933,381.4915 215.1403,387.9005 251.9093,387.9005 C334.0053,387.9005 406.6593,356.1605 451.0943,307.4525 C458.5033,309.0825 466.2693,309.9075 474.3303,309.9075 C499.2073,309.9075 518.3353,302.0175 530.0003,295.3975 C539.0393,290.2755 545.2313,282.3215 547.4223,273.0115 C548.7963,267.1705 549.2463,257.9025 543.5803,246.9275 L543.4913,246.7545 Z" id="Fill-6" fill="#232323"></path>
            <path d="M252.4366,166.504 C249.1526,156.909 253.4456,150.596 263.8006,150.596 L280.7196,150.596 C288.8006,150.596 293.8516,154.382 296.1246,162.211 L313.0436,219.789 C315.5686,228.122 317.8416,242.264 317.8416,242.264 L318.3476,242.264 C318.3476,242.264 320.6216,228.375 323.1446,219.789 L339.8116,162.211 C342.0846,154.382 347.1356,150.596 355.2166,150.596 L372.6426,150.596 C382.7426,150.596 387.2896,156.909 384.0046,166.504 L348.9036,269.284 C346.3776,277.113 341.3286,280.649 333.2476,280.649 L303.7006,280.649 C295.6196,280.649 290.5686,277.113 288.0436,269.284 L252.4366,166.504 Z" id="Fill-8" fill="#F576FF"></path>
            <path d="M61.939,113.9777 C61.939,104.8867 66.737,100.0897 75.829,100.0897 L92.243,100.0897 C101.334,100.0897 106.131,104.8867 106.131,113.9777 L106.131,242.7687 L165.981,242.7687 C175.073,242.7687 179.871,247.5677 179.871,256.6587 L179.871,266.7597 C179.871,275.8517 175.073,280.6487 165.981,280.6487 L75.829,280.6487 C66.737,280.6487 61.939,275.8517 61.939,266.7597 L61.939,113.9777 Z" id="Fill-10" fill="#F576FF"></path>
            <path d="M65.939,117.9777 C65.939,108.8867 70.737,104.0897 79.829,104.0897 L96.243,104.0897 C105.334,104.0897 110.131,108.8867 110.131,117.9777 L110.131,246.7687 L169.981,246.7687 C179.073,246.7687 183.871,251.5677 183.871,260.6587 L183.871,270.7597 C183.871,279.8517 179.073,284.6487 169.981,284.6487 L79.829,284.6487 C70.737,284.6487 65.939,279.8517 65.939,270.7597 L65.939,117.9777 Z" id="Fill-12" fill="#05FCFF"></path>
            <path d="M192.8404,164.485 C192.8404,155.393 197.6394,150.596 206.7294,150.596 L222.6394,150.596 C231.7314,150.596 236.5284,155.393 236.5284,164.485 L236.5284,266.76 C236.5284,275.852 231.7314,280.649 222.6394,280.649 L206.7294,280.649 C197.6394,280.649 192.8404,275.852 192.8404,266.76 L192.8404,164.485 Z" id="Fill-14" fill="#F576FF"></path>
            <path d="M196.8404,168.485 C196.8404,159.393 201.6394,154.596 210.7294,154.596 L226.6394,154.596 C235.7314,154.596 240.5284,159.393 240.5284,168.485 L240.5284,270.76 C240.5284,279.852 235.7314,284.649 226.6394,284.649 L210.7294,284.649 C201.6394,284.649 196.8404,279.852 196.8404,270.76 L196.8404,168.485 Z" id="Fill-16" fill="#05FCFF"></path>
            <path d="M473.4619,199.0817 C473.4619,188.4747 466.6439,179.6367 455.5319,179.6367 C442.9039,179.6367 436.8449,188.7277 434.5709,199.0817 L473.4619,199.0817 Z M456.5419,147.5647 C495.1789,147.5647 516.6449,174.8387 516.6449,209.6877 C516.6449,216.5057 510.5839,224.0817 501.9979,224.0817 L433.5629,224.0817 C436.8449,239.9917 449.9769,247.3137 463.8649,247.3137 C472.7039,247.3137 481.0369,244.5367 487.6049,241.2547 C495.9379,237.4667 501.9979,238.4767 506.2909,246.5577 L509.8269,253.1227 C513.8669,260.9517 512.6049,267.7707 505.0269,272.0637 C495.6859,277.3657 480.2799,283.6787 460.3299,283.6787 C413.8639,283.6787 388.8639,250.0927 388.8639,215.4967 C388.8639,177.3637 414.6209,147.5647 456.5419,147.5647 Z" id="Fill-18" fill="#F576FF"></path>
            <path d="M477.4619,203.0817 C477.4619,192.4747 470.6439,183.6367 459.5319,183.6367 C446.9039,183.6367 440.8449,192.7277 438.5709,203.0817 L477.4619,203.0817 Z M460.5419,151.5647 C499.1789,151.5647 520.6449,178.8387 520.6449,213.6877 C520.6449,220.5057 514.5839,228.0817 505.9979,228.0817 L437.5629,228.0817 C440.8449,243.9917 453.9769,251.3137 467.8649,251.3137 C476.7039,251.3137 485.0369,248.5367 491.6049,245.2547 C499.9379,241.4667 505.9979,242.4767 510.2909,250.5577 L513.8269,257.1227 C517.8669,264.9517 516.6049,271.7707 509.0269,276.0637 C499.6859,281.3657 484.2799,287.6787 464.3299,287.6787 C417.8639,287.6787 392.8639,254.0927 392.8639,219.4967 C392.8639,181.3637 418.6209,151.5647 460.5419,151.5647 Z" id="Fill-20" fill="#05FCFF"></path>
            <path d="M256.4366,170.504 C253.1526,160.909 257.4456,154.596 267.8006,154.596 L284.7196,154.596 C292.8006,154.596 297.8516,158.382 300.1246,166.211 L317.0436,223.789 C319.5686,232.122 321.8416,246.264 321.8416,246.264 L322.3476,246.264 C322.3476,246.264 324.6216,232.375 327.1446,223.789 L343.8116,166.211 C346.0846,158.382 351.1356,154.596 359.2166,154.596 L376.6426,154.596 C386.7426,154.596 391.2896,160.909 388.0046,170.504 L352.9036,273.284 C350.3776,281.113 345.3286,284.649 337.2476,284.649 L307.7006,284.649 C299.6196,284.649 294.5686,281.113 292.0436,273.284 L256.4366,170.504 Z" id="Fill-22" fill="#05FCFF"></path>
            <path d="M63.939,115.9777 C63.939,106.8867 68.737,102.0897 77.829,102.0897 L94.243,102.0897 C103.334,102.0897 108.131,106.8867 108.131,115.9777 L108.131,244.7687 L167.981,244.7687 C177.073,244.7687 181.871,249.5677 181.871,258.6587 L181.871,268.7597 C181.871,277.8517 177.073,282.6487 167.981,282.6487 L77.829,282.6487 C68.737,282.6487 63.939,277.8517 63.939,268.7597 L63.939,115.9777 Z" id="Fill-24" fill="#FFFFFF"></path>
            <path d="M194.8404,166.485 C194.8404,157.393 199.6394,152.596 208.7294,152.596 L224.6394,152.596 C233.7314,152.596 238.5284,157.393 238.5284,166.485 L238.5284,268.76 C238.5284,277.852 233.7314,282.649 224.6394,282.649 L208.7294,282.649 C199.6394,282.649 194.8404,277.852 194.8404,268.76 L194.8404,166.485 Z" id="Fill-26" fill="#FFFFFF"></path>
            <path d="M475.4619,201.0817 C475.4619,190.4747 468.6439,181.6367 457.5319,181.6367 C444.9039,181.6367 438.8449,190.7277 436.5709,201.0817 L475.4619,201.0817 Z M458.5419,149.5647 C497.1789,149.5647 518.6449,176.8387 518.6449,211.6877 C518.6449,218.5057 512.5839,226.0817 503.9979,226.0817 L435.5629,226.0817 C438.8449,241.9917 451.9769,249.3137 465.8649,249.3137 C474.7039,249.3137 483.0369,246.5367 489.6049,243.2547 C497.9379,239.4667 503.9979,240.4767 508.2909,248.5577 L511.8269,255.1227 C515.8669,262.9517 514.6049,269.7707 507.0269,274.0637 C497.6859,279.3657 482.2799,285.6787 462.3299,285.6787 C415.8639,285.6787 390.8639,252.0927 390.8639,217.4967 C390.8639,179.3637 416.6209,149.5647 458.5419,149.5647 Z" id="Fill-28" fill="#FFFFFF"></path>
            <path d="M254.4366,168.504 C251.1526,158.909 255.4456,152.596 265.8006,152.596 L282.7196,152.596 C290.8006,152.596 295.8516,156.382 298.1246,164.211 L315.0436,221.789 C317.5686,230.122 319.8416,244.264 319.8416,244.264 L320.3476,244.264 C320.3476,244.264 322.6216,230.375 325.1446,221.789 L341.8116,164.211 C344.0846,156.382 349.1356,152.596 357.2166,152.596 L374.6426,152.596 C384.7426,152.596 389.2896,158.909 386.0046,168.504 L350.9036,271.284 C348.3776,279.113 343.3286,282.649 335.2476,282.649 L305.7006,282.649 C297.6196,282.649 292.5686,279.113 290.0436,271.284 L254.4366,168.504 Z" id="Fill-30" fill="#FFFFFF"></path>
            <path d="M256.4683,128.2877 C259.3723,128.2877 261.7863,126.0487 261.7863,122.7257 C261.7863,119.4357 259.3723,117.1617 256.4683,117.1617 C253.5633,117.1617 251.1853,119.4357 251.1853,122.7257 C251.1853,126.0487 253.5633,128.2877 256.4683,128.2877 M256.4683,113.3837 C261.8913,113.3837 266.2993,117.2667 266.2993,122.7257 C266.2993,128.2187 261.8913,132.0657 256.4683,132.0657 C251.0453,132.0657 246.6723,128.2187 246.6723,122.7257 C246.6723,117.2667 251.0453,113.3837 256.4683,113.3837" id="Fill-32" fill="#FFFFFF"></path>
            <path d="M269.5528,115.2726 C269.5528,114.3296 270.0418,113.8026 270.9868,113.8026 L272.3518,113.8026 C273.2958,113.8026 273.8198,114.3296 273.8198,115.2726 L273.8198,116.9516 C273.8198,117.6166 273.7148,118.1756 273.7148,118.1756 L273.7848,118.1756 C274.4848,116.0416 276.4448,113.6646 278.9628,113.6646 C279.9428,113.6646 280.2928,114.1526 280.2928,115.1346 L280.2928,116.4966 C280.2928,117.4426 279.7338,117.9666 278.7888,117.9666 C275.5348,117.9666 273.9608,121.1846 273.9608,124.4386 L273.9608,130.1766 C273.9608,131.1556 273.4708,131.6466 272.5268,131.6466 L270.9868,131.6466 C270.0418,131.6466 269.5528,131.1556 269.5528,130.1766 L269.5528,115.2726 Z" id="Fill-34" fill="#FFFFFF"></path>
            <path d="M290.0547,128.3239 C292.3647,128.3239 294.5327,126.6439 294.5327,122.6899 C294.5327,119.9279 293.0987,117.1979 290.0897,117.1979 C287.6767,117.1979 285.6107,119.1909 285.6107,122.7259 C285.6107,126.1179 287.4307,128.3239 290.0547,128.3239 M289.2147,113.3839 C293.1337,113.3839 294.4287,115.9369 294.4287,115.9369 L294.4977,115.9369 C294.4977,115.9369 294.4287,115.4819 294.4287,114.9229 L294.4287,108.2769 C294.4287,107.3309 294.9167,106.8069 295.8617,106.8069 L297.4017,106.8069 C298.3467,106.8069 298.8347,107.3309 298.8347,108.2769 L298.8347,130.1769 C298.8347,131.1559 298.3467,131.6469 297.4017,131.6469 L296.1077,131.6469 C295.1617,131.6469 294.6717,131.1919 294.6717,130.3179 L294.6717,129.6169 C294.6717,129.2669 294.7417,128.9889 294.7417,128.9889 L294.6717,128.9889 C294.6717,128.9889 293.1667,132.0659 289.0747,132.0659 C284.2467,132.0659 281.1327,128.2519 281.1327,122.7259 C281.1327,117.0569 284.4917,113.3839 289.2147,113.3839" id="Fill-36" fill="#FFFFFF"></path>
            <path d="M302.5069,128.2521 L302.9279,127.6231 C303.4519,126.8871 304.0469,126.8181 304.9219,127.2731 C305.7609,127.7281 307.0909,128.4981 308.9099,128.4981 C310.4499,128.4981 311.3959,127.7971 311.3959,126.6771 C311.3959,123.7741 302.5429,124.8601 302.5429,118.7361 C302.5429,115.2391 305.6219,113.3831 309.3649,113.3831 C311.7429,113.3831 313.3879,114.1531 314.3329,114.6801 C315.1379,115.0991 315.2429,115.8321 314.8589,116.6371 L314.5079,117.2661 C314.0879,118.1071 313.4229,118.2121 312.5489,117.8261 C311.7789,117.4791 310.6239,116.9521 309.1549,116.9521 C307.6149,116.9521 306.7409,117.5831 306.7409,118.7031 C306.7409,121.6401 315.5929,120.4871 315.5929,126.5731 C315.5929,129.7221 312.9339,132.0651 308.8049,132.0651 C305.9369,132.0651 303.9439,130.9821 302.8589,130.2461 C302.0529,129.7941 301.9839,129.0221 302.5069,128.2521" id="Fill-38" fill="#FFFFFF"></path>
            <path d="M326.2276,115.4489 C325.9476,114.4679 326.4386,113.8029 327.4516,113.8029 L329.1316,113.8029 C330.0066,113.8029 330.5306,114.2249 330.7056,115.0989 L333.5746,125.5249 C333.7846,126.4679 333.9256,127.4139 333.9256,127.4139 L333.9946,127.4139 C333.9946,127.4139 334.1346,126.4679 334.3786,125.5249 L337.3886,115.0989 C337.5636,114.2579 338.1236,113.8389 338.9976,113.8389 L340.3266,113.8389 C341.2026,113.8389 341.7266,114.2579 341.9366,115.0989 L344.9116,125.5249 C345.1896,126.4679 345.2946,127.4139 345.2946,127.4139 L345.3646,127.4139 C345.3646,127.4139 345.5046,126.4679 345.7486,125.5249 L348.5826,115.0989 C348.7926,114.2249 349.3186,113.8029 350.1926,113.8029 L351.8026,113.8029 C352.8526,113.8029 353.3076,114.4679 353.0266,115.4489 L348.4436,130.4219 C348.1996,131.2609 347.6396,131.6469 346.7996,131.6469 L344.4566,131.6469 C343.5806,131.6469 343.0206,131.2269 342.8106,130.3869 L340.1176,121.4659 C339.8366,120.5199 339.6976,119.5409 339.6976,119.5409 L339.6266,119.5409 C339.6266,119.5409 339.4526,120.5199 339.1716,121.4659 L336.4786,130.3869 C336.2696,131.2269 335.7436,131.6469 334.8696,131.6469 L332.4556,131.6469 C331.6156,131.6469 331.0906,131.2609 330.8466,130.4219 L326.2276,115.4489 Z" id="Fill-40" fill="#FFFFFF"></path>
            <path d="M356.001,115.2726 C356.001,114.3296 356.491,113.8026 357.436,113.8026 L358.975,113.8026 C359.919,113.8026 360.409,114.3296 360.409,115.2726 L360.409,130.1766 C360.409,131.1556 359.919,131.6466 358.975,131.6466 L357.436,131.6466 C356.491,131.6466 356.001,131.1556 356.001,130.1766 L356.001,115.2726 Z M356.001,109.3246 L356.001,108.2766 C356.001,107.3306 356.491,106.8066 357.436,106.8066 L358.975,106.8066 C359.919,106.8066 360.443,107.3306 360.443,108.2766 L360.443,109.3246 C360.443,110.2706 359.919,110.7616 358.975,110.7616 L357.436,110.7616 C356.491,110.7616 356.001,110.2706 356.001,109.3246 Z" id="Fill-42" fill="#FFFFFF"></path>
            <path d="M365.7959,117.5832 L364.8529,117.5832 C363.9069,117.5832 363.4179,117.0922 363.4179,116.1132 L363.4179,115.5182 C363.4179,114.5722 363.9069,114.0482 364.8859,114.0482 L365.9009,114.0482 L365.9009,110.4112 C365.9009,109.4652 366.4259,108.9412 367.3709,108.9412 L368.7709,108.9412 C369.7139,108.9412 370.2399,109.4652 370.2399,110.4112 L370.2399,114.0482 L372.8279,114.0482 C373.7749,114.0482 374.2969,114.5722 374.2969,115.5182 L374.2969,116.1132 C374.2969,117.0922 373.7749,117.5832 372.8629,117.5832 L370.2399,117.5832 L370.2399,124.5102 C370.2399,127.1682 371.8829,127.6922 373.1089,127.8332 C374.1919,127.9372 374.5769,128.2882 374.5769,129.2672 L374.5769,130.3532 C374.5769,131.4012 373.9839,131.8202 372.7589,131.8202 C369.5749,131.8202 365.7959,130.1082 365.7959,125.2792 L365.7959,117.5832 Z" id="Fill-44" fill="#FFFFFF"></path>
            <path d="M377.5528,108.2765 C377.5528,107.3305 378.0758,106.8065 379.0218,106.8065 L380.5268,106.8065 C381.5058,106.8065 381.9938,107.3305 381.9938,108.2765 L381.9938,115.4825 C381.9938,116.3595 381.8908,116.9875 381.8908,116.9875 L381.9608,116.9875 C382.8348,115.2725 385.0738,113.3835 388.1528,113.3835 C392.1068,113.3835 394.3808,115.4485 394.3808,120.1695 L394.3808,130.1765 C394.3808,131.1555 393.8558,131.6465 392.9098,131.6465 L391.4068,131.6465 C390.4278,131.6465 389.9368,131.1555 389.9368,130.1765 L389.9368,121.0795 C389.9368,118.9125 389.3768,117.4425 387.1378,117.4425 C384.0248,117.4425 381.9938,119.9605 381.9938,123.3545 L381.9938,130.1765 C381.9938,131.1555 381.5058,131.6465 380.5268,131.6465 L379.0218,131.6465 C378.0758,131.6465 377.5528,131.1555 377.5528,130.1765 L377.5528,108.2765 Z" id="Fill-46" fill="#FFFFFF"></path>
            <path d="M408.1992,117.5832 L407.3242,117.5832 C406.3802,117.5832 405.8902,117.0922 405.8902,116.1132 L405.8902,115.5182 C405.8902,114.5722 406.3802,114.0482 407.3242,114.0482 L408.1992,114.0482 L408.1992,113.2102 C408.1992,107.5412 413.2012,106.6662 415.0212,106.6662 L415.5482,106.6662 C416.4912,106.6662 416.9802,107.1572 416.9802,108.1362 L416.9802,109.0462 C416.9802,109.9892 416.4552,110.4112 415.4762,110.4802 C414.3912,110.5492 412.6412,110.7942 412.6412,113.3832 L412.6412,114.0482 L415.0212,114.0482 C415.9672,114.0482 416.4552,114.5722 416.4552,115.5182 L416.4552,116.1132 C416.4552,117.0922 415.9672,117.5832 415.0212,117.5832 L412.6412,117.5832 L412.6412,130.1772 C412.6412,131.1562 412.1172,131.6462 411.1742,131.6462 L409.6342,131.6462 C408.6892,131.6462 408.1992,131.1562 408.1992,130.1772 L408.1992,117.5832 Z" id="Fill-48" fill="#FFFFFF"></path>
            <path d="M419.0811,115.2726 C419.0811,114.3296 419.5701,113.8026 420.5151,113.8026 L421.8801,113.8026 C422.8241,113.8026 423.3481,114.3296 423.3481,115.2726 L423.3481,116.9516 C423.3481,117.6166 423.2431,118.1756 423.2431,118.1756 L423.3121,118.1756 C424.0131,116.0416 425.9731,113.6646 428.4911,113.6646 C429.4711,113.6646 429.8211,114.1526 429.8211,115.1346 L429.8211,116.4966 C429.8211,117.4426 429.2621,117.9666 428.3161,117.9666 C425.0621,117.9666 423.4891,121.1846 423.4891,124.4386 L423.4891,130.1766 C423.4891,131.1556 422.9991,131.6466 422.0551,131.6466 L420.5151,131.6466 C419.5701,131.6466 419.0811,131.1556 419.0811,130.1766 L419.0811,115.2726 Z" id="Fill-50" fill="#FFFFFF"></path>
            <path d="M432.1992,115.2726 C432.1992,114.3296 432.6892,113.8026 433.6342,113.8026 L435.1732,113.8026 C436.1172,113.8026 436.6072,114.3296 436.6072,115.2726 L436.6072,130.1766 C436.6072,131.1556 436.1172,131.6466 435.1732,131.6466 L433.6342,131.6466 C432.6892,131.6466 432.1992,131.1556 432.1992,130.1766 L432.1992,115.2726 Z M432.1992,109.3246 L432.1992,108.2766 C432.1992,107.3306 432.6892,106.8066 433.6342,106.8066 L435.1732,106.8066 C436.1172,106.8066 436.6412,107.3306 436.6412,108.2766 L436.6412,109.3246 C436.6412,110.2706 436.1172,110.7616 435.1732,110.7616 L433.6342,110.7616 C432.6892,110.7616 432.1992,110.2706 432.1992,109.3246 Z" id="Fill-52" fill="#FFFFFF"></path>
            <path d="M452.4922,120.6964 C452.4222,118.2124 450.9172,116.7424 448.8882,116.7424 C446.6152,116.7424 445.0042,118.3164 444.5852,120.6964 L452.4922,120.6964 Z M448.9932,113.3834 C454.0672,113.3834 456.9002,116.9874 456.9002,121.8844 C456.9002,122.6544 456.2352,123.3904 455.3602,123.3904 L444.4792,123.3904 C444.7602,126.6084 447.1382,128.2874 449.8322,128.2874 C451.4762,128.2874 452.8412,127.6594 453.6792,127.1324 C454.5552,126.7134 455.1852,126.8184 455.6392,127.6234 L456.0592,128.3234 C456.4782,129.1264 456.3402,129.8264 455.5712,130.2814 C454.4152,131.0174 452.3172,132.0654 449.5172,132.0654 C443.6042,132.0654 439.9302,127.7974 439.9302,122.7264 C439.9302,117.2334 443.6392,113.3834 448.9932,113.3834 Z" id="Fill-54" fill="#FFFFFF"></path>
            <path d="M460.1182,115.2726 C460.1182,114.3296 460.6062,113.8026 461.5522,113.8026 L462.9172,113.8026 C463.8612,113.8026 464.3502,114.3296 464.3502,115.2726 L464.3502,116.3586 C464.3502,116.7426 464.2812,117.1616 464.2812,117.1616 L464.3502,117.1616 C465.1202,115.6586 467.0792,113.3836 470.6822,113.3836 C474.6362,113.3836 476.9112,115.4486 476.9112,120.1696 L476.9112,130.1766 C476.9112,131.1556 476.4202,131.6466 475.4412,131.6466 L473.9362,131.6466 C472.9932,131.6466 472.4682,131.1556 472.4682,130.1766 L472.4682,121.0796 C472.4682,118.9126 471.9082,117.4426 469.6682,117.4426 C466.5182,117.4426 464.5262,120.0646 464.5262,123.2856 L464.5262,130.1766 C464.5262,131.1556 464.0362,131.6466 463.0922,131.6466 L461.5522,131.6466 C460.6062,131.6466 460.1182,131.1556 460.1182,130.1766 L460.1182,115.2726 Z" id="Fill-56" fill="#FFFFFF"></path>
            <path d="M488.9444,128.3239 C491.2554,128.3239 493.4234,126.6439 493.4234,122.6899 C493.4234,119.9279 491.9884,117.1979 488.9794,117.1979 C486.5664,117.1979 484.5024,119.1909 484.5024,122.7259 C484.5024,126.1179 486.3204,128.3239 488.9444,128.3239 M488.1054,113.3839 C492.0234,113.3839 493.3184,115.9369 493.3184,115.9369 L493.3884,115.9369 C493.3884,115.9369 493.3184,115.4819 493.3184,114.9229 L493.3184,108.2769 C493.3184,107.3309 493.8074,106.8069 494.7534,106.8069 L496.2934,106.8069 C497.2364,106.8069 497.7254,107.3309 497.7254,108.2769 L497.7254,130.1769 C497.7254,131.1559 497.2364,131.6469 496.2934,131.6469 L494.9974,131.6469 C494.0524,131.6469 493.5624,131.1919 493.5624,130.3179 L493.5624,129.6169 C493.5624,129.2669 493.6324,128.9889 493.6324,128.9889 L493.5624,128.9889 C493.5624,128.9889 492.0574,132.0659 487.9654,132.0659 C483.1374,132.0659 480.0224,128.2519 480.0224,122.7259 C480.0224,117.0569 483.3824,113.3839 488.1054,113.3839" id="Fill-58" fill="#FFFFFF"></path>
            <path d="M501.3994,128.2521 L501.8194,127.6231 C502.3444,126.8871 502.9394,126.8181 503.8134,127.2731 C504.6534,127.7281 505.9824,128.4981 507.8014,128.4981 C509.3394,128.4981 510.2864,127.7971 510.2864,126.6771 C510.2864,123.7741 501.4354,124.8601 501.4354,118.7361 C501.4354,115.2391 504.5124,113.3831 508.2564,113.3831 C510.6344,113.3831 512.2804,114.1531 513.2234,114.6801 C514.0294,115.0991 514.1334,115.8321 513.7504,116.6371 L513.3994,117.2661 C512.9814,118.1071 512.3154,118.2121 511.4414,117.8261 C510.6704,117.4791 509.5164,116.9521 508.0464,116.9521 C506.5064,116.9521 505.6324,117.5831 505.6324,118.7031 C505.6324,121.6401 514.4844,120.4871 514.4844,126.5731 C514.4844,129.7221 511.8254,132.0651 507.6974,132.0651 C504.8284,132.0651 502.8344,130.9821 501.7494,130.2461 C500.9444,129.7941 500.8754,129.0221 501.3994,128.2521" id="Fill-60" fill="#FFFFFF"></path>
            <path d="M63.939,115.9777 C63.939,106.8867 68.737,102.0897 77.829,102.0897 L94.243,102.0897 C103.334,102.0897 108.131,106.8867 108.131,115.9777 L108.131,244.7687 L167.981,244.7687 C177.073,244.7687 181.871,249.5677 181.871,258.6587 L181.871,268.7597 C181.871,277.8517 177.073,282.6487 167.981,282.6487 L77.829,282.6487 C68.737,282.6487 63.939,277.8517 63.939,268.7597 L63.939,115.9777 Z" id="Fill-62" fill="#FFFFFF"></path>
            <path d="M194.8404,166.485 C194.8404,157.393 199.6394,152.596 208.7294,152.596 L224.6394,152.596 C233.7314,152.596 238.5284,157.393 238.5284,166.485 L238.5284,268.76 C238.5284,277.852 233.7314,282.649 224.6394,282.649 L208.7294,282.649 C199.6394,282.649 194.8404,277.852 194.8404,268.76 L194.8404,166.485 Z" id="Fill-64" fill="#FFFFFF"></path>
            <path d="M475.4619,201.0817 C475.4619,190.4747 468.6439,181.6367 457.5319,181.6367 C444.9039,181.6367 438.8449,190.7277 436.5709,201.0817 L475.4619,201.0817 Z M458.5419,149.5647 C497.1789,149.5647 518.6449,176.8387 518.6449,211.6877 C518.6449,218.5057 512.5839,226.0817 503.9979,226.0817 L435.5629,226.0817 C438.8449,241.9917 451.9769,249.3137 465.8649,249.3137 C474.7039,249.3137 483.0369,246.5367 489.6049,243.2547 C497.9379,239.4667 503.9979,240.4767 508.2909,248.5577 L511.8269,255.1227 C515.8669,262.9517 514.6049,269.7707 507.0269,274.0637 C497.6859,279.3657 482.2799,285.6787 462.3299,285.6787 C415.8639,285.6787 390.8639,252.0927 390.8639,217.4967 C390.8639,179.3637 416.6209,149.5647 458.5419,149.5647 Z" id="Fill-66" fill="#FFFFFF"></path>
            <path d="M254.4366,168.504 C251.1526,158.909 255.4456,152.596 265.8006,152.596 L282.7196,152.596 C290.8006,152.596 295.8516,156.382 298.1246,164.211 L315.0436,221.789 C317.5686,230.122 319.8416,244.264 319.8416,244.264 L320.3476,244.264 C320.3476,244.264 322.6216,230.375 325.1446,221.789 L341.8116,164.211 C344.0846,156.382 349.1356,152.596 357.2166,152.596 L374.6426,152.596 C384.7426,152.596 389.2896,158.909 386.0046,168.504 L350.9036,271.284 C348.3776,279.113 343.3286,282.649 335.2476,282.649 L305.7006,282.649 C297.6196,282.649 292.5686,279.113 290.0436,271.284 L254.4366,168.504 Z" id="Fill-68" fill="#FFFFFF"></path>
            <path d="M223.8736,138.4518 L205.4956,138.4518 C198.5246,138.4518 192.8216,132.7478 192.8216,125.7778 L192.8216,107.3998 C192.8216,100.4288 198.5246,94.7248 205.4956,94.7248 L223.8736,94.7248 C230.8446,94.7248 236.5476,100.4288 236.5476,107.3998 L236.5476,125.7778 C236.5476,132.7478 230.8446,138.4518 223.8736,138.4518" id="Fill-70" fill="#F576FF"></path>
            <path d="M199.0118,106.4831 C198.7658,105.4981 199.2228,104.8641 200.2788,104.8641 L202.0378,104.8641 C202.8818,104.8641 203.4098,105.2871 203.6208,106.1661 L207.2448,122.1391 C207.5608,123.5461 207.6318,124.7771 207.6318,124.7771 L207.7018,124.7771 C207.7018,124.7771 207.8428,123.5811 208.2298,122.1391 L212.3808,106.1311 C212.6278,105.2871 213.1548,104.8641 214.0338,104.8641 L215.2308,104.8641 C216.1108,104.8641 216.6378,105.2871 216.8138,106.1311 L220.9298,122.1391 C221.3178,123.5811 221.4578,124.7771 221.4578,124.7771 L221.5288,124.7771 C221.5288,124.7771 221.6338,123.5461 221.9498,122.1391 L225.7848,106.1661 C225.9608,105.2871 226.4888,104.8641 227.4038,104.8641 L229.0568,104.8641 C230.1128,104.8641 230.6048,105.4981 230.3588,106.4831 L224.6238,128.6121 C224.3778,129.4571 223.8498,129.8441 222.9708,129.8441 L220.4728,129.8441 C219.5938,129.8441 219.0658,129.4211 218.8548,128.5771 L215.3018,115.0671 C214.8788,113.4491 214.6328,111.7951 214.6328,111.7951 L214.5268,111.7951 C214.5268,111.7951 214.2808,113.4491 213.8938,115.0671 L210.3048,128.5771 C210.0948,129.4211 209.5668,129.8441 208.6868,129.8441 L206.1538,129.8441 C205.2748,129.8441 204.7468,129.4211 204.5348,128.5771 L199.0118,106.4831 Z" id="Fill-72" fill="#F576FF"></path>
            <path d="M227.8736,142.4518 L209.4956,142.4518 C202.5246,142.4518 196.8216,136.7478 196.8216,129.7778 L196.8216,111.3998 C196.8216,104.4288 202.5246,98.7248 209.4956,98.7248 L227.8736,98.7248 C234.8446,98.7248 240.5476,104.4288 240.5476,111.3998 L240.5476,129.7778 C240.5476,136.7478 234.8446,142.4518 227.8736,142.4518" id="Fill-74" fill="#05FCFF"></path>
            <path d="M203.0118,110.4831 C202.7658,109.4981 203.2228,108.8641 204.2788,108.8641 L206.0378,108.8641 C206.8818,108.8641 207.4098,109.2871 207.6208,110.1661 L211.2448,126.1391 C211.5608,127.5461 211.6318,128.7771 211.6318,128.7771 L211.7018,128.7771 C211.7018,128.7771 211.8428,127.5811 212.2298,126.1391 L216.3808,110.1311 C216.6278,109.2871 217.1548,108.8641 218.0338,108.8641 L219.2308,108.8641 C220.1108,108.8641 220.6378,109.2871 220.8138,110.1311 L224.9298,126.1391 C225.3178,127.5811 225.4578,128.7771 225.4578,128.7771 L225.5288,128.7771 C225.5288,128.7771 225.6338,127.5461 225.9498,126.1391 L229.7848,110.1661 C229.9608,109.2871 230.4888,108.8641 231.4038,108.8641 L233.0568,108.8641 C234.1128,108.8641 234.6048,109.4981 234.3588,110.4831 L228.6238,132.6121 C228.3778,133.4571 227.8498,133.8441 226.9708,133.8441 L224.4728,133.8441 C223.5938,133.8441 223.0658,133.4211 222.8548,132.5771 L219.3018,119.0671 C218.8788,117.4491 218.6328,115.7951 218.6328,115.7951 L218.5268,115.7951 C218.5268,115.7951 218.2808,117.4491 217.8938,119.0671 L214.3048,132.5771 C214.0948,133.4211 213.5668,133.8441 212.6868,133.8441 L210.1538,133.8441 C209.2748,133.8441 208.7468,133.4211 208.5348,132.5771 L203.0118,110.4831 Z" id="Fill-76" fill="#05FCFF"></path>
            <path d="M225.8736,140.4518 L207.4956,140.4518 C200.5246,140.4518 194.8216,134.7478 194.8216,127.7778 L194.8216,109.3998 C194.8216,102.4288 200.5246,96.7248 207.4956,96.7248 L225.8736,96.7248 C232.8446,96.7248 238.5476,102.4288 238.5476,109.3998 L238.5476,127.7778 C238.5476,134.7478 232.8446,140.4518 225.8736,140.4518" id="Fill-78" fill="#FFFFFF"></path>
            <path d="M201.0118,108.4831 C200.7658,107.4981 201.2228,106.8641 202.2788,106.8641 L204.0378,106.8641 C204.8818,106.8641 205.4098,107.2871 205.6208,108.1661 L209.2448,124.1391 C209.5608,125.5461 209.6318,126.7771 209.6318,126.7771 L209.7018,126.7771 C209.7018,126.7771 209.8428,125.5811 210.2298,124.1391 L214.3808,108.1311 C214.6278,107.2871 215.1548,106.8641 216.0338,106.8641 L217.2308,106.8641 C218.1108,106.8641 218.6378,107.2871 218.8138,108.1311 L222.9298,124.1391 C223.3178,125.5811 223.4578,126.7771 223.4578,126.7771 L223.5288,126.7771 C223.5288,126.7771 223.6338,125.5461 223.9498,124.1391 L227.7848,108.1661 C227.9608,107.2871 228.4888,106.8641 229.4038,106.8641 L231.0568,106.8641 C232.1128,106.8641 232.6048,107.4981 232.3588,108.4831 L226.6238,130.6121 C226.3778,131.4571 225.8498,131.8441 224.9708,131.8441 L222.4728,131.8441 C221.5938,131.8441 221.0658,131.4211 220.8548,130.5771 L217.3018,117.0671 C216.8788,115.4491 216.6328,113.7951 216.6328,113.7951 L216.5268,113.7951 C216.5268,113.7951 216.2808,115.4491 215.8938,117.0671 L212.3048,130.5771 C212.0948,131.4211 211.5668,131.8441 210.6868,131.8441 L208.1538,131.8441 C207.2748,131.8441 206.7468,131.4211 206.5348,130.5771 L201.0118,108.4831 Z" id="Fill-80" fill="#231F20"></path>
            <polygon id="Fill-82" fill="#010101" points="522.5753 85.2516 522.5753 82.9516 532.7703 82.9516 532.7703 85.2516 529.0403 85.2516 529.0403 95.3946 526.3043 95.3946 526.3043 85.2516"></polygon>
            <polygon id="Fill-84" fill="#010101" points="538.0508 82.9513 540.9598 91.5083 540.9958 91.5083 543.7488 82.9513 547.6008 82.9513 547.6008 95.3943 545.0388 95.3943 545.0388 86.5763 545.0048 86.5763 541.9538 95.3943 539.8458 95.3943 536.7958 86.6633 536.7608 86.6633 536.7608 95.3943 534.1978 95.3943 534.1978 82.9513"></polygon>
        </g>
    </g>
</svg>