<?xml version="1.0" encoding="UTF-8"?>
<svg width="929px" height="1044px" viewBox="0 0 929 1044" version="1.1" xmlns="http://www.w3.org/2000/svg" xmlns:xlink="http://www.w3.org/1999/xlink">
    <!-- Generator: Sketch 51.2 (57519) - http://www.bohemiancoding.com/sketch -->
    <title>Fill 1</title>
    <desc>Created with Sketch.</desc>
    <defs>
        <linearGradient x1="0.0280209545%" y1="49.9996996%" x2="100.020797%" y2="49.9996996%" id="linearGradient-1">
            <stop stop-color="#0097E6" offset="0%"></stop>
            <stop stop-color="#FF42FF" offset="100%"></stop>
        </linearGradient>
    </defs>
    <g id="Page-1" stroke="none" stroke-width="1" fill="none" fill-rule="evenodd">
        <path d="M589.05625,11.425 L555.42625,49.499 C541.92625,63.657 530.05625,60.895 524.30025,57.957 C517.84625,54.665 515.55125,52.307 511.65525,48.168 C496.36925,30.679 474.54025,30.68 461.07725,45.922 L10.09725,556.482 C-3.36575,571.724 -3.36575,596.435 10.09725,611.678 C23.55925,626.917 45.38825,626.917 58.85125,611.676 L98.48525,566.806 C111.94725,551.565 133.77625,551.563 147.24025,566.806 C160.70225,582.048 160.70225,606.76 147.24025,622.002 L64.94625,715.168 C51.48325,730.41 51.48325,755.121 64.94625,770.364 C78.40925,785.604 100.23725,785.604 113.69925,770.364 L186.83225,687.571 C200.29525,672.329 222.12425,672.329 235.58725,687.571 C249.04925,702.811 249.05125,727.525 235.58725,742.767 L64.94625,935.953 C51.48325,951.193 51.48325,975.905 64.94625,991.146 C78.40925,1006.389 100.23725,1006.389 113.69925,991.146 L253.86825,832.461 C267.33325,817.218 289.16125,817.218 302.62525,832.461 C316.08725,847.701 316.08825,872.414 302.62525,887.655 L308.04225,881.524 C294.57925,896.764 294.57725,921.476 308.04125,936.718 C321.50525,951.961 343.33325,951.961 356.79625,936.718 L366.63725,925.577 C380.09925,910.337 401.92625,910.337 415.39125,925.578 C428.85325,940.82 428.85425,965.533 415.39125,980.775 L418.41725,977.348 C404.95325,992.589 404.95225,1017.3 418.41625,1032.543 C425.06625,1040.072 433.75725,1043.882 442.47325,1043.973 C451.83225,1043.882 460.52225,1040.072 467.17225,1032.543 L918.15125,521.983 C924.88325,514.362 928.24925,504.374 928.24925,494.386 C928.24925,484.398 924.88325,474.409 918.15125,466.788 C904.68725,451.547 882.86225,451.547 869.39725,466.788 L857.20925,480.589 C843.74625,495.83 821.91925,495.83 808.45725,480.589 C794.99225,465.346 794.99225,440.636 808.45725,425.393 L888.35825,334.932 C901.81925,319.692 901.81925,294.978 888.35625,279.737 C874.89325,264.494 853.06525,264.496 839.60325,279.737 L835.69625,284.161 C823.64725,294.546 813.28225,292.016 808.02325,289.331 C801.04525,285.77 798.92625,283.303 794.38925,278.498 C779.73525,261.836 757.90525,261.837 744.44125,277.076 L634.76825,401.225 C621.26925,415.382 609.40125,412.62 603.64425,409.683 C596.35525,405.964 594.37625,403.449 589.39725,398.199 C575.59525,382.553 553.76525,382.553 540.30125,397.796 L497.64225,446.092 C484.17925,461.332 462.35225,461.332 448.88825,446.089 C435.42425,430.848 435.42425,406.135 448.88725,390.896 L589.05925,232.206 C601.93325,217.629 602.48425,194.391 590.72825,179.058 C584.76925,171.389 582.41125,169.779 578.67625,160.4 C576.08025,153.883 573.63925,140.446 586.14625,125.161 L637.81125,66.619 C651.27325,51.381 651.27825,26.668 637.81125,11.425 C631.23525,3.978 622.65725,0.171 614.03825,0 C604.21025,0.169 595.63425,3.978 589.05625,11.425 Z" id="Fill-1" fill="url(#linearGradient-1)"></path>
    </g>
</svg>